<?xml version="1.0" encoding="UTF-8"?><!DOCTYPE svg PUBLIC "-//W3C//DTD SVG 1.1//EN" "http://www.w3.org/Graphics/SVG/1.1/DTD/svg11.dtd"><svg xmlns="http://www.w3.org/2000/svg" xmlns:xlink="http://www.w3.org/1999/xlink"><defs/><symbol id="icon-ccw" viewBox="0 0 20 20">
    <path d="M.69 10h2.37v-.2a8.18 8.18 0 0116.34.2 8.18 8.18 0 01-13.2 6.46l1.4-1.5A6.14 6.14 0 105.1 9.8v.2h2.67l-3.5 3.9L.7 10z"/>
</symbol><symbol id="icon-compass" viewBox="0 0 64 64">
    <circle cx="32" cy="35" r="28.29"/>
    <path d="M37 40l8-19-19 8-7 18zM26 29l11 11m-.1-33a5 5 0 10-9.8 0M32 7v5m0 46v5m28-28h-5M9 35H4"/>
</symbol><symbol id="icon-cw" viewBox="0 0 20 20">
    <path d="M19.32 10h-2.38v-.2A8.18 8.18 0 00.6 10a8.18 8.18 0 0013.2 6.46l-1.4-1.5a6.14 6.14 0 112.5-5.16v.2h-2.67l3.5 3.9L19.3 10z"/>
</symbol><symbol id="icon-cycle" viewBox="0 0 20 20">
    <path d="M5.52 14.22a6.22 6.22 0 01.12-8.6 6.07 6.07 0 013.42-1.74L8.99 1.8c-1.76.21-3.45 1-4.8 2.35a8.3 8.3 0 00-.12 11.53l-1.74 1.75 5.5.3V11.9l-2.31 2.32zm6.64-11.96l.02 5.84 2.3-2.32a6.22 6.22 0 01-.12 8.6 6.07 6.07 0 01-3.42 1.74l.07 2.08c1.76-.21 3.45-1 4.8-2.35a8.3 8.3 0 00.12-11.53l1.74-1.75-5.5-.3z"/>
</symbol><symbol id="icon-heart" viewBox="0 0 64 64">
    <path d="M1 21c0 20 31 38 31 38s31-18 31-38c0-8.29-6-16-15-16-8.29 0-16 5.71-16 14 0-8.29-7.71-14-16-14C7 5 1 12.71 1 21z"/>
</symbol><symbol id="icon-map" viewBox="0 0 64 64">
    <path d="M1 59l21-8 20 8 21-8V5l-21 8-20-8-21 8zM22 5v46m20-38v46"/>
</symbol><symbol id="icon-world" viewBox="0 0 64 64">
    <path d="M32 .89a31.11 31.11 0 110 62.22A31.11 31.11 0 0132 .89zM32 1v62m31-31H1"/>
    <path d="M30 1S16 12 16 32s14 31 14 31m4-62s14 11 14 31-14 31-14 31"/>
    <path d="M8 12s5 10 24 10 24-10 24-10M8 52s5-10 24-10 24 10 24 10"/>
</symbol></svg>